<?xml version="1.0" encoding="UTF-8" standalone="no"?>
<!DOCTYPE svg PUBLIC "-//W3C//DTD SVG 1.1//EN"
 "http://www.w3.org/Graphics/SVG/1.1/DTD/svg11.dtd">
<!-- Generated by graphviz version 2.43.0 (0)
 -->
<!-- Title: %3 Pages: 1 -->
<svg width="926pt" height="188pt"
 viewBox="0.00 0.00 926.00 188.00" xmlns="http://www.w3.org/2000/svg" xmlns:xlink="http://www.w3.org/1999/xlink">
<g id="graph0" class="graph" transform="scale(1 1) rotate(0) translate(4 184)">
<title>%3</title>
<polygon fill="white" stroke="transparent" points="-4,4 -4,-184 922,-184 922,4 -4,4"/>
<!-- sim -->
<g id="node1" class="node">
<title>sim</title>
<ellipse fill="none" stroke="black" cx="243" cy="-162" rx="93.68" ry="18"/>
<text text-anchor="middle" x="243" y="-158.3" font-family="Times,serif" font-size="14.00">Simple_Sim(&#39;sim&#39;)</text>
</g>
<!-- sim/z_s -->
<g id="node2" class="node">
<title>sim/z_s</title>
<polygon fill="lightgrey" stroke="lightgrey" points="173,-108 119,-108 119,-72 173,-72 173,-108"/>
<text text-anchor="middle" x="146" y="-86.3" font-family="Times,serif" font-size="14.00">z_s</text>
</g>
<!-- sim&#45;&gt;sim/z_s -->
<g id="edge1" class="edge">
<title>sim&#45;&gt;sim/z_s</title>
<path fill="none" stroke="black" d="M220.01,-144.41C207.49,-135.37 191.78,-124.04 178.07,-114.14"/>
<polygon fill="black" stroke="black" points="179.99,-111.21 169.84,-108.2 175.9,-116.89 179.99,-111.21"/>
</g>
<!-- sie -->
<g id="node3" class="node">
<title>sie</title>
<ellipse fill="none" stroke="black" cx="243" cy="-90" rx="51.99" ry="18"/>
<text text-anchor="middle" x="243" y="-86.3" font-family="Times,serif" font-size="14.00">SIE(&#39;sie&#39;)</text>
</g>
<!-- sim&#45;&gt;sie -->
<g id="edge2" class="edge">
<title>sim&#45;&gt;sie</title>
<path fill="none" stroke="black" d="M243,-143.7C243,-135.98 243,-126.71 243,-118.11"/>
<polygon fill="black" stroke="black" points="246.5,-118.1 243,-108.1 239.5,-118.1 246.5,-118.1"/>
</g>
<!-- src -->
<g id="node10" class="node">
<title>src</title>
<ellipse fill="none" stroke="black" cx="639" cy="-90" rx="65.79" ry="18"/>
<text text-anchor="middle" x="639" y="-86.3" font-family="Times,serif" font-size="14.00">Sersic(&#39;src&#39;)</text>
</g>
<!-- sim&#45;&gt;src -->
<g id="edge9" class="edge">
<title>sim&#45;&gt;src</title>
<path fill="none" stroke="black" d="M309.28,-149.28C383.41,-136.18 502.61,-115.11 575.56,-102.21"/>
<polygon fill="black" stroke="black" points="576.3,-105.64 585.54,-100.45 575.08,-98.74 576.3,-105.64"/>
</g>
<!-- sie/z_l -->
<g id="node4" class="node">
<title>sie/z_l</title>
<polygon fill="none" stroke="black" points="54,-36 0,-36 0,0 54,0 54,-36"/>
<text text-anchor="middle" x="27" y="-14.3" font-family="Times,serif" font-size="14.00">z_l</text>
</g>
<!-- sie&#45;&gt;sie/z_l -->
<g id="edge3" class="edge">
<title>sie&#45;&gt;sie/z_l</title>
<path fill="none" stroke="black" d="M203.92,-77.84C160.62,-65.43 93.75,-46.11 63.85,-35.88"/>
<polygon fill="black" stroke="black" points="64.92,-32.55 54.33,-32.44 62.54,-39.13 64.92,-32.55"/>
</g>
<!-- sie/x0 -->
<g id="node5" class="node">
<title>sie/x0</title>
<polygon fill="none" stroke="black" points="126,-36 72,-36 72,0 126,0 126,-36"/>
<text text-anchor="middle" x="99" y="-14.3" font-family="Times,serif" font-size="14.00">x0</text>
</g>
<!-- sie&#45;&gt;sie/x0 -->
<g id="edge4" class="edge">
<title>sie&#45;&gt;sie/x0</title>
<path fill="none" stroke="black" d="M214.21,-75C191.6,-64.01 159.97,-48.64 135.58,-36.78"/>
<polygon fill="black" stroke="black" points="136.8,-33.49 126.28,-32.26 133.74,-39.78 136.8,-33.49"/>
</g>
<!-- sie/y0 -->
<g id="node6" class="node">
<title>sie/y0</title>
<polygon fill="none" stroke="black" points="198,-36 144,-36 144,0 198,0 198,-36"/>
<text text-anchor="middle" x="171" y="-14.3" font-family="Times,serif" font-size="14.00">y0</text>
</g>
<!-- sie&#45;&gt;sie/y0 -->
<g id="edge5" class="edge">
<title>sie&#45;&gt;sie/y0</title>
<path fill="none" stroke="black" d="M226.3,-72.76C217.3,-64.01 206.01,-53.03 195.98,-43.28"/>
<polygon fill="black" stroke="black" points="198.22,-40.59 188.61,-36.12 193.34,-45.6 198.22,-40.59"/>
</g>
<!-- sie/q -->
<g id="node7" class="node">
<title>sie/q</title>
<polygon fill="none" stroke="black" points="270,-36 216,-36 216,0 270,0 270,-36"/>
<text text-anchor="middle" x="243" y="-14.3" font-family="Times,serif" font-size="14.00">q</text>
</g>
<!-- sie&#45;&gt;sie/q -->
<g id="edge6" class="edge">
<title>sie&#45;&gt;sie/q</title>
<path fill="none" stroke="black" d="M243,-71.7C243,-63.98 243,-54.71 243,-46.11"/>
<polygon fill="black" stroke="black" points="246.5,-46.1 243,-36.1 239.5,-46.1 246.5,-46.1"/>
</g>
<!-- sie/phi -->
<g id="node8" class="node">
<title>sie/phi</title>
<polygon fill="none" stroke="black" points="342,-36 288,-36 288,0 342,0 342,-36"/>
<text text-anchor="middle" x="315" y="-14.3" font-family="Times,serif" font-size="14.00">phi</text>
</g>
<!-- sie&#45;&gt;sie/phi -->
<g id="edge7" class="edge">
<title>sie&#45;&gt;sie/phi</title>
<path fill="none" stroke="black" d="M259.7,-72.76C268.7,-64.01 279.99,-53.03 290.02,-43.28"/>
<polygon fill="black" stroke="black" points="292.66,-45.6 297.39,-36.12 287.78,-40.59 292.66,-45.6"/>
</g>
<!-- sie/b -->
<g id="node9" class="node">
<title>sie/b</title>
<polygon fill="none" stroke="black" points="414,-36 360,-36 360,0 414,0 414,-36"/>
<text text-anchor="middle" x="387" y="-14.3" font-family="Times,serif" font-size="14.00">b</text>
</g>
<!-- sie&#45;&gt;sie/b -->
<g id="edge8" class="edge">
<title>sie&#45;&gt;sie/b</title>
<path fill="none" stroke="black" d="M271.79,-75C294.4,-64.01 326.03,-48.64 350.42,-36.78"/>
<polygon fill="black" stroke="black" points="352.26,-39.78 359.72,-32.26 349.2,-33.49 352.26,-39.78"/>
</g>
<!-- src/x0 -->
<g id="node11" class="node">
<title>src/x0</title>
<polygon fill="none" stroke="black" points="486,-36 432,-36 432,0 486,0 486,-36"/>
<text text-anchor="middle" x="459" y="-14.3" font-family="Times,serif" font-size="14.00">x0</text>
</g>
<!-- src&#45;&gt;src/x0 -->
<g id="edge10" class="edge">
<title>src&#45;&gt;src/x0</title>
<path fill="none" stroke="black" d="M599.52,-75.53C572.48,-66.07 535.68,-52.73 495.47,-36.03"/>
<polygon fill="black" stroke="black" points="496.59,-32.71 486.01,-32.07 493.88,-39.16 496.59,-32.71"/>
</g>
<!-- src/y0 -->
<g id="node12" class="node">
<title>src/y0</title>
<polygon fill="none" stroke="black" points="558,-36 504,-36 504,0 558,0 558,-36"/>
<text text-anchor="middle" x="531" y="-14.3" font-family="Times,serif" font-size="14.00">y0</text>
</g>
<!-- src&#45;&gt;src/y0 -->
<g id="edge11" class="edge">
<title>src&#45;&gt;src/y0</title>
<path fill="none" stroke="black" d="M614.49,-73.12C600.11,-63.79 581.69,-51.85 565.81,-41.56"/>
<polygon fill="black" stroke="black" points="567.59,-38.55 557.3,-36.04 563.78,-44.42 567.59,-38.55"/>
</g>
<!-- src/q -->
<g id="node13" class="node">
<title>src/q</title>
<polygon fill="none" stroke="black" points="630,-36 576,-36 576,0 630,0 630,-36"/>
<text text-anchor="middle" x="603" y="-14.3" font-family="Times,serif" font-size="14.00">q</text>
</g>
<!-- src&#45;&gt;src/q -->
<g id="edge12" class="edge">
<title>src&#45;&gt;src/q</title>
<path fill="none" stroke="black" d="M630.29,-72.05C626.15,-64.01 621.11,-54.2 616.49,-45.23"/>
<polygon fill="black" stroke="black" points="619.57,-43.57 611.88,-36.28 613.35,-46.77 619.57,-43.57"/>
</g>
<!-- src/phi -->
<g id="node14" class="node">
<title>src/phi</title>
<polygon fill="none" stroke="black" points="702,-36 648,-36 648,0 702,0 702,-36"/>
<text text-anchor="middle" x="675" y="-14.3" font-family="Times,serif" font-size="14.00">phi</text>
</g>
<!-- src&#45;&gt;src/phi -->
<g id="edge13" class="edge">
<title>src&#45;&gt;src/phi</title>
<path fill="none" stroke="black" d="M647.71,-72.05C651.85,-64.01 656.89,-54.2 661.51,-45.23"/>
<polygon fill="black" stroke="black" points="664.65,-46.77 666.12,-36.28 658.43,-43.57 664.65,-46.77"/>
</g>
<!-- src/n -->
<g id="node15" class="node">
<title>src/n</title>
<polygon fill="none" stroke="black" points="774,-36 720,-36 720,0 774,0 774,-36"/>
<text text-anchor="middle" x="747" y="-14.3" font-family="Times,serif" font-size="14.00">n</text>
</g>
<!-- src&#45;&gt;src/n -->
<g id="edge14" class="edge">
<title>src&#45;&gt;src/n</title>
<path fill="none" stroke="black" d="M663.51,-73.12C677.89,-63.79 696.31,-51.85 712.19,-41.56"/>
<polygon fill="black" stroke="black" points="714.22,-44.42 720.7,-36.04 710.41,-38.55 714.22,-44.42"/>
</g>
<!-- src/Re -->
<g id="node16" class="node">
<title>src/Re</title>
<polygon fill="none" stroke="black" points="846,-36 792,-36 792,0 846,0 846,-36"/>
<text text-anchor="middle" x="819" y="-14.3" font-family="Times,serif" font-size="14.00">Re</text>
</g>
<!-- src&#45;&gt;src/Re -->
<g id="edge15" class="edge">
<title>src&#45;&gt;src/Re</title>
<path fill="none" stroke="black" d="M678.48,-75.53C705.52,-66.07 742.32,-52.73 782.53,-36.03"/>
<polygon fill="black" stroke="black" points="784.12,-39.16 791.99,-32.07 781.41,-32.71 784.12,-39.16"/>
</g>
<!-- src/Ie -->
<g id="node17" class="node">
<title>src/Ie</title>
<polygon fill="none" stroke="black" points="918,-36 864,-36 864,0 918,0 918,-36"/>
<text text-anchor="middle" x="891" y="-14.3" font-family="Times,serif" font-size="14.00">Ie</text>
</g>
<!-- src&#45;&gt;src/Ie -->
<g id="edge16" class="edge">
<title>src&#45;&gt;src/Ie</title>
<path fill="none" stroke="black" d="M691.8,-79.13C733.82,-70.59 794.1,-56.79 854.1,-35.98"/>
<polygon fill="black" stroke="black" points="855.46,-39.21 863.72,-32.57 853.13,-32.61 855.46,-39.21"/>
</g>
</g>
</svg>
